<?xml version="1.0" encoding="UTF-8" standalone="no"?>
<!-- Created with Inkscape (http://www.inkscape.org/) -->

<svg
   xmlns:dc="http://purl.org/dc/elements/1.1/"
   xmlns:cc="http://creativecommons.org/ns#"
   xmlns:rdf="http://www.w3.org/1999/02/22-rdf-syntax-ns#"
   xmlns:svg="http://www.w3.org/2000/svg"
   xmlns="http://www.w3.org/2000/svg"
   xmlns:sodipodi="http://sodipodi.sourceforge.net/DTD/sodipodi-0.dtd"
   xmlns:inkscape="http://www.inkscape.org/namespaces/inkscape"
   width="247.59476mm"
   height="54.104397mm"
   viewBox="0 0 207.59476 54.104397"
   version="1.1"
   id="svg8"
   inkscape:version="0.92.4 (5da689c313, 2019-01-14)"
   sodipodi:docname="Logo AGIPRO et subtitle_v2.svg"
   inkscape:export-filename="C:\Users\A466935\logo_AGIPRO_sub_final.png"
   inkscape:export-xdpi="244.70753"
   inkscape:export-ydpi="244.70753">
  <defs
     id="defs2" />
  <sodipodi:namedview
     id="base"
     pagecolor="#ffffff"
     bordercolor="#666666"
     borderopacity="1.0"
     inkscape:pageopacity="0.0"
     inkscape:pageshadow="2"
     inkscape:zoom="1.7324116"
     inkscape:cx="397.50782"
     inkscape:cy="80.912903"
     inkscape:document-units="mm"
     inkscape:current-layer="layer4"
     showgrid="false"
     inkscape:window-width="2560"
     inkscape:window-height="1377"
     inkscape:window-x="1358"
     inkscape:window-y="-8"
     inkscape:window-maximized="1" />
  <metadata
     id="metadata5">
    <rdf:RDF>
      <cc:Work
         rdf:about="">
        <dc:format>image/svg+xml</dc:format>
        <dc:type
           rdf:resource="http://purl.org/dc/dcmitype/StillImage" />
        <dc:title></dc:title>
      </cc:Work>
    </rdf:RDF>
  </metadata>
  <g
     inkscape:label="Calque 1"
     inkscape:groupmode="layer"
     id="layer1"
     style="display:inline"
     transform="translate(0.10099807,-0.19417177)">
    <flowRoot
       xml:space="preserve"
       id="flowRoot3721"
       style="font-style:normal;font-variant:normal;font-weight:normal;font-stretch:normal;font-size:85.33333588px;line-height:1.25;font-family:'ITC Elan Book def.';-inkscape-font-specification:'ITC Elan Book def.';letter-spacing:0px;word-spacing:0px;fill:#000000;fill-opacity:1;stroke:none"
       transform="scale(0.26458333)"><flowRegion
         id="flowRegion3723"
         style="font-style:normal;font-variant:normal;font-weight:normal;font-stretch:normal;font-size:85.33333588px;font-family:'ITC Elan Book def.';-inkscape-font-specification:'ITC Elan Book def.'"><rect
           id="rect3725"
           width="459.61942"
           height="190.91884"
           x="91.923882"
           y="82.062561"
           style="font-style:normal;font-variant:normal;font-weight:normal;font-stretch:normal;font-size:85.33333588px;font-family:'ITC Elan Book def.';-inkscape-font-specification:'ITC Elan Book def.'" /></flowRegion><flowPara
         id="flowPara3727" /></flowRoot>    <text
       xml:space="preserve"
       style="font-style:normal;font-variant:normal;font-weight:normal;font-stretch:normal;font-size:39.15327072px;line-height:1.25;font-family:Montserrat;-inkscape-font-specification:Montserrat;letter-spacing:0px;word-spacing:0px;fill:#000000;fill-opacity:1;stroke:none;stroke-width:0.40784657"
       x="10.463901"
       y="17.986122"
       id="text3739"
       transform="scale(1.0980867,0.9106749)"><tspan
         sodipodi:role="line"
         id="tspan3737"
         x="10.463901"
         y="17.986122"
         style="font-style:normal;font-variant:normal;font-weight:normal;font-stretch:normal;font-size:39.15327072px;font-family:Montserrat;-inkscape-font-specification:Montserrat;stroke-width:0.40784657"
         rotate="180 0"
         dy="-25.310894 34.174393"
         dx="25.727074 -44.147724"><tspan
   style="font-size:59.81750107px;fill:#ed1a3a;fill-opacity:1;stroke-width:0.40784657"
   id="tspan4205"
   dy="-10.40491"
   dx="18.420534">V</tspan>G   PRO<tspan
   style="fill:#ed1a3a;fill-opacity:1"
   id="tspan4629">S</tspan></tspan></text>
    <text
       xml:space="preserve"
       style="font-style:normal;font-weight:normal;font-size:16.31386185px;line-height:1.25;font-family:sans-serif;letter-spacing:0px;word-spacing:0px;fill:#000000;fill-opacity:1;stroke:none;stroke-width:0.40784657"
       x="0.49629444"
       y="50.954098"
       id="text41"
       transform="scale(1.0980867,0.91067487)"><tspan
         sodipodi:role="line"
         id="tspan39"
         x="0.49629444"
         y="50.954098"
         style="stroke-width:0.40784657"> </tspan></text>
  </g>
  <g
     inkscape:groupmode="layer"
     id="layer2"
     inkscape:label="Calque 2"
     style="display:inline"
     transform="translate(0.10099807,-0.19417177)">
    <rect
       style="opacity:1;fill:#ed1a3a;fill-opacity:1;stroke-width:0.57946795"
       id="rect4250"
       width="196.12764"
       height="3.439945"
       x="26.081768"
       y="41.91864"
       ry="1.0493038" />
  </g>
  <g
     inkscape:groupmode="layer"
     id="layer3"
     inkscape:label="Calque 3"
     style="display:inline"
     transform="translate(0.10099807,-0.19417177)">
    <g
       id="g5140"
       transform="matrix(0.0992803,0,0,0.09198766,72.663195,1.6897764)">
      <g
         id="g5082"
         style="fill:#000000"
         transform="translate(-141.52597,-9.7356178)">
        <path
           id="path5076"
           d="m 19.593,125.57 135.922,-20.389 c 1.958,-0.294 3.406,-1.976 3.406,-3.956 v -11.65 c 0,-1.98 -1.448,-3.662 -3.406,-3.956 L 19.593,65.231 c -2.19,-0.326 -4.222,1.179 -4.55,3.362 -0.327,2.186 1.178,4.222 3.362,4.55 L 150.921,93.02 v 4.762 L 18.406,117.658 c -2.185,0.328 -3.689,2.364 -3.362,4.55 0.298,1.983 2.004,3.407 3.951,3.407 0.197,0 0.397,-0.014 0.598,-0.045 z"
           inkscape:connector-curvature="0"
           style="fill:#000000" />
        <path
           id="path5078"
           d="M 402.833,117.658 270.317,97.781 V 93.02 L 402.834,73.144 c 2.185,-0.328 3.689,-2.364 3.362,-4.55 -0.328,-2.185 -2.365,-3.69 -4.55,-3.362 L 265.723,85.619 c -1.958,0.294 -3.406,1.976 -3.406,3.956 v 11.65 c 0,1.98 1.448,3.662 3.406,3.956 l 135.923,20.389 c 0.201,0.03 0.401,0.045 0.599,0.045 1.947,0 3.653,-1.424 3.951,-3.407 0.327,-2.186 -1.178,-4.222 -3.363,-4.55 z"
           inkscape:connector-curvature="0"
           style="fill:#000000" />
        <path
           id="path5080"
           d="m 251.236,146.835 h 6.894 c 2.209,0 4,-1.791 4,-4 v -24.272 c 0,-2.209 -1.791,-4 -4,-4 h -6.035 V 75.961 h 11.246 c 2.209,0 4,-1.791 4,-4 0,-29.452 -23.494,-53.505 -52.723,-54.44 V 4 c 0,-2.209 -1.791,-4 -4,-4 -2.209,0 -4,1.791 -4,4 v 13.521 c -29.229,0.935 -52.724,24.988 -52.724,54.44 0,2.209 1.791,4 4,4 h 11.246 v 38.603 h -6.035 c -2.209,0 -4,1.791 -4,4 v 24.272 c 0,2.209 1.791,4 4,4 h 6.901 c -5.44694,89.45033 -10.42581,178.93422 -15.96474,268.378 H 267.39709 C 261.53004,325.79547 256.54827,236.29716 251.236,146.835 Z M 206.62,76.238 v 38.325 H 192.775 V 76.238 Z m 8,0 h 13.845 v 38.325 H 214.62 Z m 21.844,0 h 7.632 v 38.325 h -7.632 z M 208.381,25.476 h 4.476 c 24.285,0 44.28,18.718 46.314,42.485 h -97.104 c 2.034,-23.768 22.029,-42.485 46.314,-42.485 z m -31.239,50.762 h 7.633 v 38.325 h -7.633 z m -10.035,46.325 h 87.024 v 16.272 h -87.024 z m 9.987,39.902 68.055,16.812 1.94,32.676 -71.879,-17.769 z m 0.482,-8.12 0.446,-7.506 h 65.201 l 1.43,24.075 z m -2.847,47.96 72.857,18.011 2.642,44.498 -78.066,-19.29 z m 75.996,70.871 1.94,32.678 -82.869,-20.478 1.884,-31.73 z m 2.437,41.041 2.642,44.497 -89.056,-22.009 2.566,-43.209 z m 3.139,52.859 1.94,32.678 -93.86,-23.188 1.885,-31.74 z m -93.92978,42.297 1.52678,-24.687 86.381,21.34 8.58669,2.41822 0.11079,0.92878 z"
           inkscape:connector-curvature="0"
           style="fill:#000000"
           sodipodi:nodetypes="cssssccsscssscssccsssscccccccccccccccccccssccscccccccccccccccccccccccccccccccccccccccccccccc" />
      </g>
      <g
         id="g5084" />
      <g
         id="g5086" />
      <g
         id="g5088" />
      <g
         id="g5090" />
      <g
         id="g5092" />
      <g
         id="g5094" />
      <g
         id="g5096" />
      <g
         id="g5098" />
      <g
         id="g5100" />
      <g
         id="g5102" />
      <g
         id="g5104" />
      <g
         id="g5106" />
      <g
         id="g5108" />
      <g
         id="g5110" />
      <g
         id="g5112" />
    </g>
  </g>
  <g
     inkscape:groupmode="layer"
     id="layer4"
     inkscape:label="Calque 4"
     transform="translate(0.10099807,-0.19417177)">
    <text
       xml:space="preserve"
       style="font-style:normal;font-weight:normal;font-size:15.68231201px;line-height:1.25;font-family:sans-serif;letter-spacing:0px;word-spacing:0px;fill:#000000;fill-opacity:1;stroke:none;stroke-width:0.39205778"
       x="-4.3408585"
       y="56.290348"
       id="text46"
       transform="scale(1.0555772,0.947349)"><tspan
         sodipodi:role="line"
         id="tspan44"
         x="-4.3408585"
         y="56.290348"
         style="font-size:6.70277786px;stroke-width:0.39205778"><tspan
   style="font-size:9.87777805px;fill:#ed1a3a;fill-opacity:1;stroke-width:0.39205778"
   id="tspan859">A</tspan><tspan
   style="font-size:9.87777805px"
   id="tspan4647">TP</tspan> <tspan
   style="font-size:9.87777805px;fill:#ed1a3a;fill-opacity:1;stroke-width:0.39205778"
   id="tspan857">G</tspan>estion des <tspan
   style="font-size:9.87777805px;fill:#ed1a3a;fill-opacity:1;stroke-width:0.39205778"
   id="tspan855">I</tspan>ncidents des <tspan
   style="font-size:9.87777805px;fill:#ed1a3a;fill-opacity:1;stroke-width:0.39205778"
   id="tspan853">PRO</tspan>blèmes et <tspan
   style="font-size:9.87777805px;fill:#ed1a3a;fill-opacity:1"
   id="tspan3812">S</tspan>ecuriprod</tspan></text>
  </g>
</svg>
